   <svg xmlns="http://www.w3.org/2000/svg" style="fill:white" viewBox="0 0 640 512"><path d="m216.326 143.993c8.284 0 15-6.716 15-15v-65.662l49.591 71.811c4.377 6.327 11.694 9.012 18.635 6.846 7.079-2.21 11.653-8.819 11.653-16.836 0-.048 0-.097-.001-.145l-1.065-110.151c-.079-8.236-6.78-14.856-14.996-14.856-.049 0-.099 0-.148.001-8.283.081-14.934 6.861-14.854 15.145l.648 67.017-52.12-75.473c-3.73-5.401-10.541-7.75-16.807-5.796-6.267 1.954-10.536 7.756-10.536 14.32v113.78c0 8.283 6.715 14.999 15 14.999z"></path></svg>